<svg width="23" height="15" viewBox="0 0 23 15" fill="none" xmlns="http://www.w3.org/2000/svg">
<path d="M11.5 0.3125C6.70833 0.3125 2.61624 3.29292 0.958328 7.5C2.61624 11.7071 6.70833 14.6875 11.5 14.6875C16.2917 14.6875 20.3837 11.7071 22.0417 7.5C20.3837 3.29292 16.2917 0.3125 11.5 0.3125ZM11.5 12.2917C8.85499 12.2917 6.70833 10.145 6.70833 7.5C6.70833 4.855 8.85499 2.70833 11.5 2.70833C14.145 2.70833 16.2917 4.855 16.2917 7.5C16.2917 10.145 14.145 12.2917 11.5 12.2917ZM11.5 4.625C9.90916 4.625 8.62499 5.90917 8.62499 7.5C8.62499 9.09083 9.90916 10.375 11.5 10.375C13.0908 10.375 14.375 9.09083 14.375 7.5C14.375 5.90917 13.0908 4.625 11.5 4.625Z" fill="black" fill-opacity="0.78"/>
</svg>
