<svg width="737" height="358" viewBox="0 0 737 358" fill="none" xmlns="http://www.w3.org/2000/svg">
<path fill-rule="evenodd" clip-rule="evenodd" d="M173.435 113C164.671 113 156.369 114.793 148.546 118.381C140.937 121.762 134.271 126.438 128.559 132.406C122.843 138.183 118.28 145.046 114.865 152.978L114.859 152.991L114.853 153.005C111.615 160.968 110 169.422 110 178.354C110 187.287 111.615 195.741 114.853 203.703L114.859 203.717L114.865 203.731C118.28 211.663 122.841 218.618 128.55 224.585C134.26 230.552 140.922 235.325 148.525 238.901L148.546 238.911L148.567 238.919C156.386 242.308 164.681 244 173.435 244C181.229 244 188.483 242.708 195.181 240.108C201.829 237.527 207.822 234.049 213.154 229.673C214.542 228.581 215.71 227.231 216.594 225.701C217.49 224.15 218.077 222.443 218.322 220.675C218.566 218.907 218.463 217.113 218.017 215.395C217.57 213.677 216.789 212.068 215.716 210.663C214.643 209.258 213.301 208.084 211.765 207.209C210.23 206.334 208.534 205.776 206.773 205.566C205.013 205.355 203.224 205.497 201.509 205.98C199.799 206.461 198.195 207.273 196.786 208.368L196.756 208.392L196.727 208.417L196.721 208.421L196.718 208.425C193.705 211.016 190.244 213.06 186.323 214.554C182.41 215.851 178.117 216.508 173.435 216.508C168.042 216.508 163.135 215.571 158.694 213.718C154.221 211.658 150.293 208.952 146.9 205.599C143.688 202.05 141.19 198.037 139.401 193.553C137.614 188.881 136.714 183.819 136.714 178.354C136.714 172.884 137.616 167.924 139.397 163.457L139.401 163.447L139.405 163.437C141.196 158.757 143.692 154.756 146.885 151.415C150.277 148.061 154.201 145.451 158.669 143.583L158.694 143.573L158.718 143.562C163.154 141.522 168.052 140.492 173.435 140.492C178.108 140.492 182.389 141.243 186.294 142.727L186.323 142.738L186.353 142.748C190.236 144.039 193.667 145.966 196.659 148.526L196.668 148.534L196.677 148.542L196.72 148.577L196.724 148.58L196.754 148.605C198.123 149.728 199.691 150.574 201.374 151.098C203.092 151.632 204.896 151.821 206.683 151.652C208.47 151.484 210.205 150.961 211.788 150.115C213.371 149.269 214.771 148.115 215.908 146.721C217.045 145.328 217.897 143.721 218.416 141.993C218.934 140.265 219.11 138.45 218.933 136.651C218.757 134.853 218.231 133.105 217.386 131.507C216.541 129.909 215.393 128.494 214.007 127.34L213.993 127.328L213.979 127.317C208.462 122.943 202.284 119.468 195.454 116.89C188.753 114.29 181.408 113 173.435 113ZM149.789 121.112C157.214 117.705 165.091 116 173.435 116C181.083 116 188.057 117.236 194.375 119.689L194.388 119.694C200.936 122.166 206.838 125.487 212.101 129.656C213.179 130.558 214.075 131.663 214.734 132.91C215.397 134.163 215.809 135.534 215.948 136.945C216.086 138.356 215.948 139.778 215.542 141.13C215.136 142.482 214.47 143.738 213.583 144.825C212.696 145.913 211.605 146.811 210.374 147.47C209.141 148.128 207.792 148.535 206.401 148.666C205.01 148.797 203.605 148.65 202.266 148.233C200.953 147.825 199.728 147.164 198.659 146.287L198.635 146.267L198.631 146.264L198.601 146.239C195.313 143.429 191.552 141.319 187.33 139.911C183.059 138.292 178.423 137.492 173.435 137.492C167.668 137.492 162.345 138.596 157.488 140.826C152.673 142.842 148.427 145.667 144.76 149.297L144.746 149.312L144.732 149.326C141.238 152.978 138.532 157.327 136.607 162.355C134.671 167.215 133.714 172.554 133.714 178.354C133.714 184.159 134.672 189.591 136.603 194.635L136.607 194.645L136.61 194.655C138.536 199.485 141.235 203.817 144.704 207.644L144.731 207.674L144.76 207.703C148.422 211.328 152.66 214.246 157.464 216.455L157.488 216.466L157.512 216.476C162.364 218.504 167.678 219.508 173.435 219.508C178.413 219.508 183.038 218.808 187.3 217.39L187.33 217.38L187.359 217.369C191.593 215.76 195.363 213.543 198.656 210.715C199.753 209.867 200.999 209.24 202.322 208.868C203.661 208.491 205.052 208.381 206.417 208.544C207.782 208.708 209.094 209.14 210.28 209.815C211.465 210.491 212.502 211.397 213.331 212.483C214.16 213.57 214.766 214.815 215.113 216.149C215.46 217.484 215.541 218.882 215.35 220.264C215.159 221.646 214.699 222.984 213.997 224.2C213.301 225.405 212.38 226.466 211.288 227.325L211.275 227.334L211.262 227.345C206.182 231.517 200.462 234.84 194.095 237.311C187.774 239.765 180.892 241 173.435 241C165.086 241 157.207 239.391 149.781 236.176C142.514 232.755 136.163 228.201 130.718 222.511C125.271 216.818 120.906 210.172 117.626 202.559C114.545 194.975 113 186.911 113 178.354C113 169.798 114.544 161.734 117.626 154.15C120.905 146.541 125.264 139.999 130.7 134.507L130.709 134.499L130.718 134.489C136.161 128.8 142.51 124.345 149.772 121.119L149.781 121.115L149.789 121.112Z" fill="black"/>
<path d="M536.724 139.505H535.989C531.719 139.505 524.894 152.315 515.514 177.935C525.104 166.665 531.649 157.425 535.149 150.215C537.109 145.805 538.089 142.935 538.089 141.605C538.089 140.205 537.634 139.505 536.724 139.505Z" fill="black"/>
<path d="M451.279 176.36C453.239 176.36 454.219 177.375 454.219 179.405C453.939 182.415 452.329 185.215 449.389 187.805C446.519 190.395 443.754 191.69 441.094 191.69C438.434 191.69 437.104 190.99 437.104 189.59C437.104 187.49 438.784 184.76 442.144 181.4C445.504 178.04 448.549 176.36 451.279 176.36Z" fill="black"/>
<path d="M482.611 181.4C483.521 181.4 484.081 181.435 484.291 181.505C485.341 181.785 485.866 182.8 485.866 184.55C485.866 188.68 483.731 194.35 479.461 201.56C475.191 208.7 471.201 212.27 467.491 212.27C465.461 212.27 464.446 210.625 464.446 207.335C464.446 203.975 466.056 199.74 469.276 194.63C472.496 189.45 475.296 185.95 477.676 184.13C480.126 182.31 481.771 181.4 482.611 181.4Z" fill="black"/>
<path d="M548.704 177.095C551.784 177.095 553.464 178.95 553.744 182.66H553.114C551.364 182.66 549.964 183.22 548.914 184.34C547.934 185.46 547.444 186.965 547.444 188.855C547.444 191.935 548.634 194.49 551.014 196.52C549.264 200.37 547.094 203.905 544.504 207.125C541.984 210.275 539.219 211.85 536.209 211.85C532.569 211.64 530.749 209.435 530.749 205.235C530.749 201.035 532.009 196.345 534.529 191.165C539.149 181.785 543.874 177.095 548.704 177.095Z" fill="black"/>
<path d="M598.287 179.825C597.587 177.585 595.942 176.465 593.352 176.465C588.732 176.465 584.217 179.72 579.807 186.23C575.467 192.67 573.297 198.41 573.297 203.45C573.297 205.55 574.137 206.6 575.817 206.6C577.637 206.6 579.772 205.48 582.222 203.24C584.672 200.93 586.877 198.235 588.837 195.155C595.137 185.425 598.287 180.315 598.287 179.825Z" fill="black"/>
<path fill-rule="evenodd" clip-rule="evenodd" d="M662 75H75V283H662V75ZM261 80V278H80V80H261ZM361.186 163.865C364.266 161.905 366.366 159.49 367.486 156.62C368.046 155.08 368.326 153.68 368.326 152.42C368.326 148.99 366.611 146.19 363.181 144.02C359.751 141.78 354.816 140.66 348.376 140.66C341.936 140.66 335.391 142.41 328.741 145.91C322.161 149.41 316.666 153.89 312.256 159.35C307.846 164.74 304.346 170.62 301.756 176.99C299.166 183.29 297.871 189.345 297.871 195.155C297.871 210.485 306.096 218.15 322.546 218.15C329.616 218.15 336.546 216.785 343.336 214.055C350.126 211.255 355.761 207.545 360.241 202.925C361.193 201.928 362.045 200.965 362.795 200.038C362.33 202.578 362.098 205.045 362.098 207.44C362.098 212.9 364.058 215.63 367.978 215.63C370.218 215.63 372.703 214.545 375.433 212.375C375.922 211.986 376.401 211.587 376.87 211.176C376.178 213.233 375.832 214.507 375.832 215H386.017C386.087 214.79 386.402 213.6 386.962 211.43C387.592 209.19 388.187 207.125 388.747 205.235C389.377 203.275 390.182 200.86 391.162 197.99C392.212 195.12 393.332 192.6 394.522 190.43C395.712 188.19 397.042 186.02 398.512 183.92C399.982 181.75 401.592 180.105 403.342 178.985C405.162 177.795 406.982 177.2 408.802 177.2C410.692 177.2 411.637 177.935 411.637 179.405C411.637 180.105 411.497 180.77 411.217 181.4C405.967 195.12 403.342 204.255 403.342 208.805C403.342 213.355 405.407 215.63 409.537 215.63C411.777 215.63 414.262 214.545 416.992 212.375C419.391 210.468 421.547 208.291 423.459 205.843C424.009 208.743 425.267 211.026 427.234 212.69C429.964 214.93 433.534 216.05 437.944 216.05C442.424 216.05 446.869 214.44 451.279 211.22C452.683 210.153 454.11 208.793 455.559 207.14C455.534 207.636 455.521 208.121 455.521 208.595C455.521 211.255 456.256 213.18 457.726 214.37C459.266 215.49 461.856 216.05 465.496 216.05C469.136 216.05 472.426 215.35 475.366 213.95C478.306 212.48 481.211 210.31 484.081 207.44C485.061 210.17 487.021 211.535 489.961 211.535C492.201 211.535 494.511 210.45 496.891 208.28C497.435 207.806 498.019 207.213 498.643 206.501C498.62 206.903 498.609 207.286 498.609 207.65C498.609 212.97 500.569 215.63 504.489 215.63C509.599 215.63 514.569 212.97 519.399 207.65C519.859 207.136 520.346 206.55 520.86 205.893C521.259 208.781 522.28 211.047 523.924 212.69C526.164 214.79 529.034 215.84 532.534 215.84C537.994 215.84 542.439 214.405 545.869 211.535C549.369 208.665 552.379 204.745 554.899 199.775C556.579 201.105 558.574 201.77 560.884 201.77C561.698 201.77 562.528 201.643 563.375 201.389C563.199 202.817 563.112 204.239 563.112 205.655C563.112 212.095 565.492 215.315 570.252 215.315C577.532 215.315 585.302 207.545 593.562 192.005C587.332 209.295 583.972 218.535 583.482 219.725C581.592 224.205 579.282 228.125 576.552 231.485C573.822 234.915 570.777 236.63 567.417 236.63C566.227 236.63 565.247 236.315 564.477 235.685C563.777 235.055 563.427 234.25 563.427 233.27C563.427 232.36 563.602 231.38 563.952 230.33C564.372 229.28 564.932 228.545 565.632 228.125C565.002 226.655 563.777 225.92 561.957 225.92C560.137 225.92 558.702 226.69 557.652 228.23C556.532 229.77 555.972 231.415 555.972 233.165C555.972 237.575 559.472 239.78 566.472 239.78C569.762 239.78 573.402 238.66 577.392 236.42C581.452 234.25 585.092 231.1 588.312 226.97C591.532 222.91 595.312 214.65 599.652 202.19C601.612 196.66 603.187 192.32 604.377 189.17C605.637 185.95 607.142 182.695 608.892 179.405C610.642 176.115 612.252 173.98 613.722 173H609.522C606.232 173 603.852 173.42 602.382 174.26C600.982 175.1 599.757 176.64 598.707 178.88C598.147 176.64 596.852 175.03 594.822 174.05C592.862 173.07 590.797 172.58 588.627 172.58C583.867 172.58 579.492 174.365 575.502 177.935C571.512 181.435 568.432 185.705 566.262 190.745C565.309 193.032 564.572 195.304 564.052 197.562C563.048 198.057 562.027 198.305 560.989 198.305C559.029 198.305 557.524 197.57 556.474 196.1C557.944 192.39 558.679 188.855 558.679 185.495C558.679 176.675 554.514 172.265 546.184 172.265C541.214 172.265 536.699 173.945 532.639 177.305C528.649 180.665 525.639 184.69 523.609 189.38C521.904 193.399 520.94 197.338 520.718 201.198C519.736 202.446 518.176 203.932 516.039 205.655C513.939 207.405 512.119 208.28 510.579 208.28C509.039 208.28 508.269 207.23 508.269 205.13C508.199 203.66 508.549 201.175 509.319 197.675C510.089 194.175 510.894 191.2 511.734 188.75L513.414 183.92C517.544 180 522.199 174.82 527.379 168.38C532.559 161.87 536.409 156.06 538.929 150.95C540.539 148.01 541.344 145.14 541.344 142.34C541.344 138.7 539.349 136.88 535.359 136.88C531.369 136.88 527.659 138.91 524.229 142.97C522.479 145 520.869 146.995 519.399 148.955C517.999 150.915 516.529 153.54 514.989 156.83C513.449 160.12 512.224 162.78 511.314 164.81C510.404 166.77 509.319 169.535 508.059 173.105C506.799 176.675 505.994 179.02 505.644 180.14C502.636 188.534 500.593 195.316 499.514 200.486C499.371 200.677 499.232 200.86 499.096 201.035C498.116 202.295 497.311 203.275 496.681 203.975C496.121 204.605 495.246 205.375 494.056 206.285C492.936 207.125 491.886 207.545 490.906 207.545C489.926 207.545 489.121 207.195 488.491 206.495C487.861 205.795 487.511 204.85 487.441 203.66C493.181 196.59 496.051 189.66 496.051 182.87C496.051 176.01 493.671 172.58 488.911 172.58C482.191 172.58 475.051 179.265 467.491 192.635C469.871 183.535 473.371 174.05 477.991 164.18C482.681 154.31 486.391 148.36 489.121 146.33C488.631 146.4 487.161 146.47 484.711 146.54C482.331 146.54 480.686 146.645 479.776 146.855C476.836 147.625 472.811 154.275 467.701 166.805C462.591 179.265 458.951 190.115 456.781 199.355C456.584 200.158 456.411 200.943 456.26 201.708C454.245 204.124 451.85 206.349 449.074 208.385C445.994 210.625 442.984 211.745 440.044 211.745C435.074 211.745 432.589 208.805 432.589 202.925C432.589 200.195 433.254 197.045 434.584 193.475C435.984 194.245 438.154 194.63 441.094 194.63C446.134 194.63 450.509 193.44 454.219 191.06C457.929 188.68 459.784 185.53 459.784 181.61C459.784 179.3 458.839 177.34 456.949 175.73C455.059 174.05 452.539 173.21 449.389 173.21C442.389 173.21 436.264 176.255 431.014 182.345C425.98 188.185 423.359 194.508 423.152 201.314C422.122 202.583 420.803 203.82 419.197 205.025C417.587 206.285 416.327 206.915 415.417 206.915C414.157 206.915 413.527 206.075 413.527 204.395C413.527 201.735 415.067 196.485 418.147 188.645C419.547 185.075 420.422 182.695 420.772 181.505C421.122 180.315 421.297 179.125 421.297 177.935C421.297 174.295 419.302 172.475 415.312 172.475C409.362 172.475 403.447 175.275 397.567 180.875C398.337 178.285 398.722 176.57 398.722 175.73C398.722 174.89 398.372 174.225 397.672 173.735C396.972 173.245 395.397 173 392.947 173H388.537C388.747 173.35 388.852 173.875 388.852 174.575C388.852 177.445 387.592 182.485 385.072 189.695C382.891 195.148 381.096 199.727 379.687 203.433C379.066 204.006 378.383 204.571 377.638 205.13C376.028 206.32 374.768 206.915 373.858 206.915C372.528 206.915 371.863 205.9 371.863 203.87C371.863 201.84 372.423 199.215 373.543 195.995C374.733 192.775 375.783 190.22 376.693 188.33C377.603 186.44 378.968 183.64 380.788 179.93C382.678 176.22 384.183 173.945 385.303 173.105H384.253L379.003 173C375.993 173 373.263 175.1 370.813 179.3C368.995 182.519 367.462 185.649 366.213 188.691C365.897 188.243 365.482 187.843 364.966 187.49C362.376 193.86 357.126 199.775 349.216 205.235C341.306 210.695 333.816 213.425 326.746 213.425C315.406 213.425 309.736 207.195 309.736 194.735C309.736 186.685 311.801 178.775 315.931 171.005C320.131 163.165 325.626 156.795 332.416 151.895C339.206 146.995 346.171 144.545 353.311 144.545C358.701 144.545 361.396 146.575 361.396 150.635C361.396 153.295 360.241 155.57 357.931 157.46C355.621 159.35 353.101 160.295 350.371 160.295C349.391 160.295 348.516 160.155 347.746 159.875C346.906 161.065 346.486 162.185 346.486 163.235C346.486 164.285 346.976 165.16 347.956 165.86C348.936 166.49 350.196 166.805 351.736 166.805C355.026 166.805 358.176 165.825 361.186 163.865ZM392.863 159.14H393.283C394.613 158.3 395.278 157.355 395.278 156.305C395.278 155.185 394.893 154.275 394.123 153.575C393.353 152.875 392.198 152.525 390.658 152.525C389.118 152.525 387.508 153.47 385.828 155.36C384.148 157.18 383.308 159 383.308 160.82C383.308 162.64 384.218 163.9 386.038 164.6C386.598 163.34 387.508 162.115 388.768 160.925C390.098 159.735 391.463 159.14 392.863 159.14Z" fill="black"/>
</svg>
