<svg width="13" height="13" viewBox="0 0 13 13" fill="none" xmlns="http://www.w3.org/2000/svg">
<path d="M8.96525 8.21416H8.42322L8.23111 8.02891C8.9035 7.24675 9.3083 6.23132 9.3083 5.12668C9.3083 2.66356 7.31173 0.666992 4.84861 0.666992C2.38549 0.666992 0.388916 2.66356 0.388916 5.12668C0.388916 7.58981 2.38549 9.58638 4.84861 9.58638C5.95324 9.58638 6.96868 9.18157 7.75084 8.50919L7.93609 8.7013V9.24332L11.3666 12.667L12.3889 11.6447L8.96525 8.21416V8.21416ZM4.84861 8.21416C3.1402 8.21416 1.76113 6.83509 1.76113 5.12668C1.76113 3.41828 3.1402 2.0392 4.84861 2.0392C6.55701 2.0392 7.93609 3.41828 7.93609 5.12668C7.93609 6.83509 6.55701 8.21416 4.84861 8.21416Z" fill="black" fill-opacity="0.87"/>
</svg>
